<svg width="744" height="706" viewBox="0 0 744 706" fill="none" xmlns="http://www.w3.org/2000/svg">
<path d="M365.006 677.573L44.1564 438.827C33.945 431.614 25.1844 419.741 35.1354 411.99L357.12 178.325C361.956 174.555 369.284 172.096 374.195 175.679L711.041 421.779C721.252 429.249 723.094 450.114 712.901 457.585L407.34 677.198C400.919 681.893 393.637 684.396 386.213 684.462C378.788 684.528 371.479 682.153 365.006 677.573Z" fill="#AED3E3"/>
<path d="M368.28 590.833C372.6 582.246 375.38 572.576 376.427 562.497L336.716 526.597L273.904 573.129L342.091 624.976C351.094 614.04 361.379 604.041 368.28 590.833Z" fill="url(#paint0_linear_28_102)"/>
<path d="M552.978 460.067H564.194V405.363H552.978V460.067Z" fill="black"/>
<path d="M502.851 475.476C502.503 474.44 502.431 473.289 502.646 472.197C503.669 466.554 510.291 465.687 513.806 464.423C518.543 462.737 523.286 461.074 528.035 459.435L540.274 455.243C540.962 455.009 544.701 453.042 545.333 453.533L513.713 429.553C513.172 429.141 512.707 428.588 512.348 427.931C511.99 427.275 511.746 426.53 511.634 425.746C511.521 424.962 511.542 424.157 511.695 423.384C511.849 422.612 512.131 421.889 512.523 421.263C513.262 420.088 514.302 419.272 515.466 418.956C516.63 418.64 517.845 418.843 518.903 419.53L555.024 442.948H558.428L577.028 416.603C577.992 415.228 579.291 414.295 580.722 413.951C582.154 413.608 583.635 413.874 584.933 414.706C585.654 415.179 586.285 415.845 586.78 416.657C587.276 417.469 587.624 418.408 587.802 419.407C587.979 420.407 587.98 421.443 587.806 422.443C587.632 423.443 587.286 424.383 586.793 425.198L570.481 450.957L613.484 455.032C614.161 455.096 614.821 455.336 615.422 455.738C616.022 456.139 616.549 456.693 616.971 457.364C617.392 458.036 617.698 458.81 617.869 459.638C618.041 460.466 618.074 461.33 617.966 462.175C617.782 463.649 617.158 464.979 616.221 465.893C615.284 466.807 614.106 467.236 612.926 467.092L566.835 461.566L573.159 487.326C573.416 488.372 573.487 489.477 573.366 490.562C573.245 491.647 572.936 492.685 572.46 493.602C571.983 494.519 571.353 495.292 570.612 495.867C569.871 496.442 569.039 496.804 568.174 496.927H567.821C565.657 497.25 563.472 496.607 561.646 495.109C559.821 493.611 558.471 491.354 557.833 488.731L551.509 463.252L508.301 478.637C507.242 479.011 506.113 478.897 505.114 478.318C504.116 477.739 503.314 476.732 502.851 475.476Z" fill="black"/>
<path d="M613.502 454.985L570.499 450.911L586.811 425.151C587.305 424.337 587.65 423.396 587.825 422.396C587.999 421.396 587.997 420.36 587.82 419.36C587.643 418.361 587.295 417.422 586.799 416.61C586.303 415.798 585.673 415.132 584.951 414.66C583.653 413.827 582.172 413.561 580.741 413.905C579.31 414.248 578.01 415.181 577.046 416.556L564.026 434.94V405.386H552.866V441.52L518.94 419.554C517.882 418.866 516.667 418.663 515.503 418.98C514.339 419.296 513.299 420.111 512.56 421.287C512.168 421.912 511.886 422.635 511.733 423.408C511.579 424.181 511.558 424.986 511.671 425.77C511.783 426.554 512.027 427.298 512.386 427.955C512.744 428.611 513.209 429.164 513.751 429.577L545.371 453.557C544.72 453.065 541 455.032 540.311 455.266L528.073 459.458C523.323 461.097 518.58 462.76 513.844 464.446C510.291 465.711 503.669 466.577 502.684 472.221C502.468 473.313 502.54 474.463 502.888 475.499C503.358 476.756 504.169 477.761 505.175 478.332C506.181 478.903 507.316 479.003 508.375 478.614L551.583 463.228L557.907 488.707C558.546 491.33 559.895 493.588 561.721 495.086C563.546 496.584 565.731 497.227 567.895 496.903H568.249C569.113 496.78 569.945 496.418 570.686 495.844C571.427 495.269 572.058 494.495 572.534 493.578C573.01 492.661 573.32 491.623 573.44 490.539C573.561 489.454 573.491 488.349 573.233 487.302L566.909 461.542L613 467.069C614.18 467.212 615.359 466.783 616.296 465.869C617.232 464.955 617.857 463.625 618.041 462.151C618.151 461.299 618.119 460.427 617.945 459.592C617.772 458.757 617.461 457.976 617.034 457.301C616.606 456.626 616.071 456.071 615.463 455.672C614.855 455.273 614.187 455.039 613.502 454.985V454.985Z" fill="black"/>
<path d="M557.498 304.853C557.498 304.853 548.309 202.657 548.291 178.115C548.272 153.573 572.471 143.362 581.455 142.847C590.438 142.332 619.213 162.776 636.548 178.115C653.883 193.453 649.568 211.345 649.568 211.345C649.568 211.345 639.022 324.29 635.767 344.218C632.512 364.147 612.182 371.172 612.182 371.172L600.78 374.826" fill="#68E1FD"/>
<path opacity="0.49" d="M557.74 304.853C557.74 304.853 548.328 202.657 548.309 178.115C548.291 153.573 572.75 143.362 581.696 142.847C590.643 142.332 619.454 162.776 636.79 178.115C654.125 193.453 649.81 211.345 649.81 211.345C649.81 211.345 639.263 324.29 636.008 344.218C632.753 364.147 612.424 371.172 612.424 371.172L601.022 374.826" fill="black"/>
<path d="M513.1 301.48L517.08 335.694L508.226 342.719C508.226 342.719 502.181 298.904 502.181 293.753" fill="#68E1FD"/>
<path d="M610.917 381.5C610.917 381.5 620.068 372.367 623.305 352.438C626.541 332.509 637.106 219.518 637.106 219.518C637.106 219.518 641.347 201.626 624.086 186.287C606.825 170.949 577.921 150.505 568.993 151.02C560.065 151.535 547.361 159.778 547.379 184.391C547.398 209.003 544.961 313.189 544.961 313.189" fill="#68E1FD"/>
<path d="M497.624 342.766C497.624 351.923 497.066 356.232 497.624 365.365C498.182 374.498 501.196 379.111 506.478 384.567C516.336 394.778 537.912 411.92 537.912 411.92C537.912 411.92 552.178 426.345 569.532 417.891C581.659 412.013 600.148 396.815 610.285 388.291C612.522 386.385 614.354 383.817 615.618 380.812C616.883 377.807 617.543 374.456 617.539 371.055V359.206" fill="#68E1FD"/>
<path d="M613.056 349.839L562.129 311.316C558.491 308.562 554.341 307.062 550.097 306.967C545.852 306.873 541.662 308.187 537.949 310.777L502.981 335.179C501.44 336.258 500.14 337.811 499.204 339.693C498.269 341.575 497.727 343.726 497.631 345.943C497.534 348.16 497.886 350.372 498.652 352.372C499.419 354.372 500.575 356.095 502.014 357.379L542.748 393.63C548.039 398.355 554.307 401.044 560.789 401.368C567.27 401.692 573.688 399.639 579.26 395.457L612.982 370.236C614.384 369.186 615.546 367.698 616.356 365.916C617.166 364.133 617.596 362.117 617.603 360.064C617.611 358.01 617.196 355.989 616.399 354.197C615.602 352.405 614.45 350.904 613.056 349.839V349.839Z" fill="#68E1FD"/>
<path d="M587.76 406.416C587.76 406.416 579.111 405.269 576.953 399.391C574.796 393.513 569.513 346.139 569.513 346.139L584.542 350.049" fill="#68E1FD"/>
<path d="M585.695 354.171C585.695 354.171 589.75 392.998 593.135 396.323C596.521 399.649 616.311 379.205 616.311 379.205L620.756 329.067L626.541 325.25C626.541 325.25 622.821 375.552 621.463 381.453C620.105 387.354 592.503 408.477 587.76 406.416C583.017 404.356 576.953 349.768 576.953 349.768" fill="#68E1FD"/>
<path d="M626.467 319.84V325.273C626.48 326.42 626.244 327.549 625.786 328.539C625.327 329.53 624.662 330.344 623.863 330.893L584.207 358.152C583.399 358.705 582.486 358.968 581.567 358.91C580.648 358.852 579.76 358.476 578.999 357.824L571.559 351.431C570.888 350.852 570.339 350.077 569.96 349.171C569.581 348.265 569.383 347.256 569.383 346.232V341.08" fill="#68E1FD"/>
<path d="M624.662 313.588L619.082 308.225C618.342 307.51 617.456 307.076 616.527 306.972C615.599 306.868 614.665 307.1 613.837 307.639L571.969 334.945C571.197 335.446 570.544 336.197 570.078 337.119C569.612 338.042 569.348 339.104 569.314 340.196C569.28 341.289 569.477 342.374 569.884 343.339C570.292 344.305 570.895 345.117 571.634 345.694L576.842 349.768C577.952 350.631 579.221 351.117 580.525 351.179C581.829 351.24 583.123 350.875 584.282 350.12L623.881 323.962C624.615 323.488 625.242 322.789 625.705 321.93C626.168 321.07 626.451 320.078 626.529 319.044C626.607 318.01 626.477 316.969 626.15 316.015C625.824 315.061 625.312 314.227 624.662 313.588Z" fill="#68E1FD"/>
<path d="M513.1 301.48L517.08 335.694L508.226 342.719C508.226 342.719 502.181 298.904 502.181 293.753" fill="black"/>
<path opacity="0.22" d="M607.867 374.076C607.867 374.076 620.068 372.343 623.323 352.415C626.578 332.486 637.106 219.518 637.106 219.518C637.106 219.518 641.347 201.626 624.086 186.287C606.825 170.949 577.921 150.505 568.993 151.02C560.065 151.535 547.361 159.778 547.379 184.391C547.398 209.003 544.961 313.189 544.961 313.189" fill="black"/>
<path opacity="0.28" d="M497.624 342.766C497.624 351.923 497.066 356.232 497.624 365.365C498.182 374.498 501.196 379.111 506.478 384.567C516.336 394.778 537.912 411.92 537.912 411.92C537.912 411.92 552.178 426.345 569.532 417.891C581.659 412.013 600.148 396.815 610.285 388.291C612.522 386.385 614.354 383.817 615.618 380.812C616.883 377.807 617.543 374.456 617.539 371.055V359.206" fill="black"/>
<path d="M613.056 349.839L562.129 311.316C558.491 308.562 554.341 307.062 550.097 306.967C545.852 306.873 541.662 308.187 537.949 310.777L502.981 335.179C501.44 336.258 500.14 337.811 499.204 339.693C498.269 341.575 497.727 343.726 497.631 345.943C497.534 348.16 497.886 350.372 498.652 352.372C499.419 354.372 500.575 356.095 502.014 357.379L542.748 393.63C548.039 398.355 554.307 401.044 560.789 401.368C567.27 401.692 573.688 399.639 579.26 395.457L612.982 370.236C614.384 369.186 615.546 367.698 616.356 365.916C617.166 364.133 617.596 362.117 617.603 360.064C617.611 358.01 617.196 355.989 616.399 354.197C615.602 352.405 614.45 350.904 613.056 349.839V349.839Z" fill="#68E1FD"/>
<path d="M587.76 406.416C587.76 406.416 579.111 405.269 576.953 399.391C574.796 393.513 569.513 346.139 569.513 346.139L584.542 350.049" fill="#68E1FD"/>
<path d="M585.695 354.171C585.695 354.171 589.75 392.998 593.135 396.323C596.521 399.649 616.311 379.205 616.311 379.205L620.756 329.067L626.541 325.25C626.541 325.25 622.821 375.552 621.463 381.453C620.105 387.354 592.503 408.477 587.76 406.416C583.017 404.356 576.953 349.768 576.953 349.768" fill="#68E1FD"/>
<path d="M587.76 406.416C587.76 406.416 579.111 405.269 576.953 399.391C574.796 393.513 569.513 346.139 569.513 346.139L584.542 350.049" fill="black"/>
<path d="M585.695 354.171C585.695 354.171 589.75 392.998 593.135 396.323C596.521 399.649 616.311 379.205 616.311 379.205L620.756 329.067L626.541 325.25C626.541 325.25 622.821 375.552 621.463 381.453C620.105 387.354 592.503 408.477 587.76 406.416C583.017 404.356 576.953 349.768 576.953 349.768" fill="black"/>
<path d="M626.467 319.84V325.273C626.48 326.42 626.244 327.549 625.786 328.539C625.327 329.53 624.662 330.344 623.863 330.893L584.207 358.152C583.399 358.705 582.486 358.968 581.567 358.91C580.648 358.852 579.76 358.476 578.999 357.824L571.559 351.431C570.888 350.852 570.339 350.077 569.96 349.171C569.581 348.265 569.383 347.256 569.383 346.232V341.08" fill="#68E1FD"/>
<path d="M624.662 313.588L619.082 308.225C618.342 307.51 617.456 307.076 616.527 306.972C615.599 306.868 614.665 307.1 613.837 307.639L571.969 334.945C571.197 335.446 570.544 336.197 570.078 337.119C569.612 338.042 569.348 339.104 569.314 340.196C569.28 341.289 569.477 342.374 569.884 343.339C570.292 344.305 570.895 345.117 571.634 345.694L576.842 349.768C577.952 350.631 579.221 351.117 580.525 351.179C581.829 351.24 583.123 350.875 584.282 350.12L623.881 323.962C624.615 323.488 625.242 322.789 625.705 321.93C626.168 321.07 626.451 320.078 626.529 319.044C626.607 318.01 626.477 316.969 626.15 316.015C625.824 315.061 625.312 314.227 624.662 313.588Z" fill="#68E1FD"/>
<g opacity="0.28">
<path d="M626.467 319.84V325.273C626.48 326.42 626.244 327.549 625.786 328.539C625.327 329.53 624.662 330.344 623.863 330.893L584.207 358.152C583.399 358.705 582.486 358.968 581.567 358.91C580.648 358.852 579.76 358.476 578.999 357.824L571.559 351.431C570.888 350.852 570.339 350.077 569.96 349.171C569.581 348.265 569.383 347.256 569.383 346.232V341.08" fill="black"/>
<path d="M624.662 313.588L619.082 308.225C618.342 307.51 617.456 307.076 616.527 306.972C615.599 306.868 614.665 307.1 613.837 307.639L571.969 334.945C571.197 335.446 570.544 336.197 570.078 337.119C569.612 338.042 569.348 339.104 569.314 340.196C569.28 341.289 569.477 342.374 569.884 343.339C570.292 344.305 570.895 345.117 571.634 345.694L576.842 349.768C577.952 350.631 579.221 351.117 580.525 351.179C581.829 351.24 583.123 350.875 584.282 350.12L623.881 323.962C624.615 323.488 625.242 322.789 625.705 321.93C626.168 321.07 626.451 320.078 626.529 319.044C626.607 318.01 626.477 316.969 626.15 316.015C625.824 315.061 625.312 314.227 624.662 313.588Z" fill="black"/>
</g>
<path d="M559.209 267.431V272.864C559.222 274.01 558.987 275.14 558.528 276.13C558.069 277.12 557.404 277.934 556.605 278.484L516.875 305.719C516.067 306.273 515.154 306.535 514.235 306.477C513.316 306.419 512.428 306.043 511.667 305.391L504.227 298.998C503.556 298.42 503.007 297.644 502.628 296.738C502.249 295.832 502.051 294.823 502.051 293.799V288.647" fill="#68E1FD"/>
<path d="M557.405 261.178L551.825 255.815C551.085 255.101 550.199 254.666 549.27 254.563C548.341 254.459 547.408 254.69 546.58 255.23L504.711 282.535C503.939 283.037 503.287 283.787 502.82 284.71C502.354 285.632 502.09 286.694 502.056 287.787C502.022 288.88 502.219 289.964 502.627 290.93C503.034 291.896 503.638 292.708 504.376 293.284L509.584 297.359C510.695 298.222 511.964 298.708 513.267 298.769C514.571 298.831 515.866 298.466 517.024 297.71L556.624 271.552C557.357 271.078 557.985 270.38 558.447 269.52C558.91 268.661 559.194 267.668 559.271 266.635C559.349 265.601 559.219 264.559 558.893 263.606C558.567 262.652 558.055 261.817 557.405 261.178V261.178Z" fill="#68E1FD"/>
<g opacity="0.28">
<path d="M559.209 267.431V272.864C559.222 274.01 558.987 275.139 558.528 276.13C558.069 277.12 557.404 277.934 556.605 278.484L516.875 305.719C516.067 306.273 515.154 306.535 514.235 306.477C513.316 306.419 512.428 306.043 511.667 305.391L504.227 298.998C503.556 298.42 503.007 297.644 502.628 296.738C502.249 295.832 502.051 294.823 502.051 293.799V288.647" fill="black"/>
<path d="M557.405 261.178L551.825 255.815C551.085 255.101 550.199 254.666 549.27 254.563C548.341 254.459 547.408 254.69 546.58 255.23L504.711 282.535C503.939 283.037 503.287 283.787 502.82 284.71C502.354 285.632 502.09 286.694 502.056 287.787C502.022 288.88 502.219 289.964 502.627 290.93C503.034 291.896 503.638 292.708 504.376 293.284L509.584 297.359C510.695 298.222 511.964 298.708 513.267 298.769C514.571 298.831 515.866 298.466 517.024 297.71L556.624 271.552C557.357 271.078 557.985 270.38 558.447 269.52C558.91 268.661 559.194 267.668 559.271 266.635C559.349 265.601 559.219 264.559 558.893 263.606C558.567 262.652 558.055 261.817 557.405 261.178V261.178Z" fill="black"/>
</g>
<path d="M121.607 480.3L149.302 412.88L130.2 395.152L62.5518 432.621C80.073 448.522 102.988 466.601 121.607 480.3Z" fill="url(#paint1_linear_28_102)"/>
<path d="M123.02 337.052C114.654 350.625 110.585 367.622 111.6 384.755C113.144 412.599 125.587 420.701 125.587 420.701L140.467 421.732C140.467 421.732 158.1 414.496 155.794 378.268C153.636 344.265 144.857 336.256 144.857 336.256" fill="#68E1FD"/>
<path d="M133.939 341.9C139.969 341.9 144.857 339.73 144.857 337.052C144.857 334.375 139.969 332.205 133.939 332.205C127.909 332.205 123.02 334.375 123.02 337.052C123.02 339.73 127.909 341.9 133.939 341.9Z" fill="#003B94"/>
<path d="M133.939 422.598C139.969 422.598 144.857 420.428 144.857 417.751C144.857 415.073 139.969 412.903 133.939 412.903C127.909 412.903 123.02 415.073 123.02 417.751C123.02 420.428 127.909 422.598 133.939 422.598Z" fill="#68E1FD"/>
<path d="M129.456 338.528L116.25 243.099C115.971 241.015 113.441 241.905 113.739 243.966L126.945 339.394C127.243 341.478 129.754 340.589 129.456 338.528Z" fill="#007F68"/>
<path d="M131.855 338.949C132.255 338.851 132.665 338.851 133.064 338.949C133.588 339.116 134.06 339.475 134.422 339.98C135.476 313.314 135.668 286.633 134.999 259.937C134.999 257.829 132.339 257.829 132.395 259.937C133.064 286.228 132.885 312.565 131.855 338.949Z" fill="#007F68"/>
<path d="M161.56 246.237C151.714 276.189 143.195 306.804 136.04 337.942C135.956 338.359 136.005 338.8 136.176 339.172C136.348 339.543 136.629 339.815 136.958 339.929C137.287 340.042 137.639 339.989 137.937 339.779C138.235 339.57 138.455 339.221 138.551 338.809C145.706 307.67 154.225 277.055 164.071 247.104C164.722 245.16 162.192 244.294 161.56 246.237Z" fill="#007F68"/>
<path d="M119.04 282.442C119.04 282.442 117.608 282.231 111.377 273.964C105.146 265.698 113.014 259.492 109.405 250.195C105.797 240.898 110.875 228.697 112.028 219.4C112.728 225.903 114.599 232.118 117.496 237.573C122.202 246.05 124.825 253.684 124.322 264.433C123.971 271.221 123.042 277.941 121.551 284.479" fill="#007F68"/>
<path d="M132.451 297.172C132.451 297.172 131.111 296.516 126.647 286.61C122.183 276.704 131.037 273.074 129.326 262.958C127.615 252.841 134.906 242.561 137.807 233.896C137.25 240.43 137.886 247.039 139.667 253.216C142.588 262.864 143.666 271.084 141.118 281.318C139.47 287.792 137.275 294.026 134.571 299.911" fill="#007F68"/>
<path d="M151.051 279.983C151.051 279.983 149.842 278.999 147.089 268.133C144.336 257.267 153.58 256.026 153.562 245.675C153.543 235.325 162.341 227.152 166.582 219.424C164.957 225.663 164.487 232.287 165.205 238.791C166.489 249.001 166.21 257.314 162.043 266.705C159.378 272.617 156.216 278.151 152.613 283.214" fill="#007F68"/>
<path d="M316.832 294.127L315.921 182.213C315.921 182.213 324.31 132.496 339.431 131.747C354.553 130.998 359.333 129.874 363.611 136.431C367.889 142.988 357.027 203.125 357.027 203.125L351.689 302.768" fill="white"/>
<path d="M302.455 249.797C290.03 250.991 267.115 205.115 267.115 205.115C279.8 196.662 280.395 178.161 280.395 178.161L311.662 214.389" fill="#DBDBDB"/>
<path d="M267.152 205.115C267.152 205.115 261.237 203.546 265.813 189.636C270.388 175.726 277.066 174.274 280.432 178.161C283.799 182.049 278.479 206.169 267.152 205.115Z" fill="#9E9E9E"/>
<path d="M271.207 204.788C275.95 201.837 278.647 195.842 280.507 189.66C280.015 188.884 279.591 188.044 279.242 187.154C279.465 184.976 279.688 182.775 279.837 180.573C280.545 174.585 281.844 168.732 283.706 163.15C284.915 158.842 279.484 156.992 278.293 161.277C276.967 165.516 275.837 169.848 274.908 174.251L273.048 149.076C272.713 144.58 267.096 144.533 267.468 149.076L268.789 166.851C268.063 160.434 267.431 153.994 266.929 147.531C266.631 143.034 261.014 142.988 261.349 147.531C261.349 148.702 261.535 149.873 261.609 151.02C259.861 149.919 257.368 150.833 257.591 153.9C257.74 155.75 257.908 157.577 258.094 159.404C257.641 159.357 257.185 159.443 256.763 159.655C256.341 159.867 255.964 160.199 255.661 160.626C255.358 161.052 255.138 161.562 255.018 162.114C254.898 162.665 254.881 163.245 254.969 163.806C257.703 179.332 262.483 193.758 271.207 204.788Z" fill="#F0B387"/>
<path d="M326.876 502.641C326.876 502.641 325.333 528.963 321.706 532.85C318.079 536.737 303.701 550.624 301.246 552.896C298.79 555.167 301.115 562.684 309.616 562.684C318.116 562.684 334.335 550.062 334.335 550.062L346.332 544.442C346.332 544.442 348.006 518.94 345.421 503.226C342.835 487.513 326.876 502.641 326.876 502.641Z" fill="#4A2B0F"/>
<path d="M367.424 545.215C367.424 545.215 358.98 596.547 364.56 600.505C370.14 604.462 382.658 595.938 384.592 587.133C386.527 578.328 385.801 526.059 384.592 525.754" fill="#4A2B0F"/>
<path d="M315.568 322.135L317.669 512.64C317.669 512.64 336.269 520.649 354.014 512.64L350.517 332.322L360.84 553.879C365.849 556.51 371.223 557.864 376.65 557.864C382.077 557.864 387.451 556.51 392.46 553.879L389.168 305.836L317.669 280.896L315.568 322.135Z" fill="#68E1FD"/>
<path d="M341.663 127.415C341.663 127.415 322.04 120.389 312.424 148.608C299.404 186.826 298.753 405.456 298.753 405.456C298.753 405.456 305.71 415.362 320.199 420.21C320.199 420.21 321.873 194.577 323.305 180.316C325.649 156.757 341.663 127.415 341.663 127.415Z" fill="#DBDBDB"/>
<path d="M326.672 129.171C326.672 129.171 315.512 145.751 316.442 145.751C317.372 145.751 320.404 150.739 320.404 150.739L314.135 158.373L322.171 265.183C322.171 265.183 316.33 187.552 341.719 127.602C341.701 127.625 330.838 125.986 326.672 129.171Z" fill="#EEF3F7"/>
<path d="M360.542 133.784C360.542 133.784 380.203 142.402 385.318 165.141C390.581 188.559 391.4 424.519 391.4 427.001C391.4 429.483 378.901 439.319 368.336 441.286C357.771 443.253 342.296 435.689 342.296 435.689L339.469 298.108C339.469 298.108 340.808 219.002 342.296 203.945C343.784 188.887 360.542 133.784 360.542 133.784Z" fill="#DBDBDB"/>
<path d="M369.489 324.102C368.881 285.072 368.602 246.042 368.652 207.012C368.652 206.472 368.481 205.954 368.178 205.572C367.875 205.19 367.463 204.975 367.034 204.975C366.605 204.975 366.193 205.19 365.89 205.572C365.586 205.954 365.416 206.472 365.416 207.012C365.329 246.37 365.614 285.728 366.271 325.086L369.489 324.102Z" fill="#9E9E9E"/>
<path d="M362.7 397.916C362.7 397.916 405.48 346.724 408.493 348.996C411.506 351.267 411.19 428.781 410.595 430.958C410 433.136 380.575 471.237 377.115 472.361C373.655 473.485 359.836 472.361 359.836 472.361L362.7 397.916Z" fill="#4A2B0F"/>
<path d="M375.72 389.743C375.72 389.743 370.661 355.389 385.28 348.925C399.9 342.462 396.05 368.994 396.05 368.994L401.183 361.384C401.183 361.384 399.974 334.992 384.443 342.017C368.912 349.042 366.662 374.802 369.229 393.911" fill="#4A2B0F"/>
<path d="M390.6 316.14C385.404 320.069 379.625 322.62 373.618 323.634C372.519 328.982 370.933 334.152 368.894 339.043C367.815 345.014 367.685 350.752 372.614 350.213C372.911 350.18 373.195 350.045 373.434 349.822C373.674 349.599 373.86 349.296 373.972 348.949C374.12 350.588 374.269 352.204 374.437 353.843C374.485 354.167 374.615 354.463 374.809 354.686C374.995 355.394 375.372 355.998 375.875 356.391C376.378 356.785 376.975 356.944 377.561 356.841C377.954 356.79 378.327 356.603 378.64 356.302C378.696 356.982 378.912 357.627 379.26 358.152C379.607 358.678 380.072 359.061 380.593 359.253C381.143 359.479 381.739 359.441 382.268 359.147C382.796 358.853 383.22 358.324 383.458 357.66C383.836 358.425 384.42 358.992 385.103 359.259C385.786 359.525 386.522 359.473 387.178 359.112C387.62 358.827 388.012 358.434 388.331 357.956C388.651 357.477 388.891 356.923 389.038 356.325C389.309 356.163 389.536 355.902 389.689 355.576C393.409 347.356 392.739 338.364 390.842 329.605C390.805 325.109 390.749 320.636 390.6 316.14Z" fill="#F0B387"/>
<path d="M360.542 133.012L368.28 138.772L365.341 159.544L355.744 161.16L358.98 172.682C358.98 172.682 348.694 201.205 346.927 206.052C345.16 210.9 340.25 258.274 340.25 258.274C340.25 258.274 341.384 206.966 342.631 200.455C343.877 193.945 351.131 152.495 360.542 133.012Z" fill="#EEF3F7"/>
<path d="M325.207 180.04C328.291 178.854 329.941 174.383 328.891 170.054C327.841 165.724 324.489 163.176 321.404 164.362C318.319 165.548 316.67 170.019 317.72 174.349C318.77 178.678 322.122 181.226 325.207 180.04Z" fill="#9E9E9E"/>
<path d="M324.775 167.108C324.235 166.64 325.221 122.848 345.235 125.471C365.248 128.094 363.667 146.852 362.905 156.5L366.141 157.062C366.141 157.062 369.861 123.574 344.249 123.504C318.637 123.434 322.747 169.778 322.747 169.778" fill="#9E9E9E"/>
<path d="M328.922 103.318C328.922 103.318 323.342 100.062 323.342 90.0162C323.342 79.9698 335.693 72.4293 340.733 71.5394C347.281 70.3685 369.098 73.8812 370.493 94.3251C371.423 108.61 363.667 133.972 357.976 134.136" fill="#4A2B0F"/>
<path d="M358.98 120.061C358.423 116.896 357.734 113.769 356.915 110.694C356.63 109.633 356.326 108.579 356.004 107.533C354.442 102.451 352.079 103.973 348.378 103.973C345.57 104.057 342.765 103.703 340.027 102.919C335.834 101.513 331.825 99.3518 328.123 96.5029C327.583 107.509 327.211 139.826 341.44 142.59C350.089 144.276 354.814 139.967 357.455 134.815C358.05 129.85 358.496 124.956 358.98 120.061Z" fill="#F0B387"/>
<path d="M355.818 118.82C355.818 118.82 359.259 107.837 361.882 113.27C364.783 119.335 358.552 123.598 358.552 123.598" fill="#F0B387"/>
<path d="M332.862 123.113C335.869 121.957 337.416 117.35 336.318 112.823C335.22 108.295 331.893 105.562 328.886 106.718C325.88 107.874 324.333 112.481 325.431 117.008C326.529 121.535 329.856 124.268 332.862 123.113Z" stroke="#42210B" stroke-width="0.25375" stroke-miterlimit="10"/>
<path d="M348.22 127.82C351.227 126.664 352.774 122.057 351.676 117.53C350.578 113.003 347.25 110.27 344.244 111.425C341.238 112.581 339.691 117.188 340.789 121.715C341.887 126.243 345.214 128.976 348.22 127.82Z" stroke="#42210B" stroke-width="0.25375" stroke-miterlimit="10"/>
<path d="M351.67 117.509L362.998 107.861" stroke="#42210B" stroke-width="0.25375" stroke-miterlimit="10"/>
<path d="M336.976 117.064C336.976 117.064 339.71 117.064 340.436 118.258" stroke="#42210B" stroke-width="0.25375" stroke-miterlimit="10"/>
<path d="M362.96 197.622C366.067 197.481 371.014 197.622 373.674 195.397C376.334 193.172 375.906 190.269 375.534 186.405C374.902 177.412 374.344 160.645 366.141 157.085C358.999 153.9 352.972 160.481 350.443 168.373C348.787 173.501 346.109 181.885 347.113 187.622C347.913 192.165 351.819 194.648 354.962 196.287C355.558 196.615 356.06 195.514 355.465 195.186C351.745 193.172 347.913 190.503 348.025 184.812C348.375 179.89 349.303 175.06 350.777 170.48C353.251 162.05 359.761 154.205 367.015 159.146C372.967 163.197 373.637 177.459 374.306 184.906C374.753 189.706 375.236 192.844 370.977 195.186C368.327 196.195 365.558 196.615 362.793 196.427C362.142 196.427 362.142 197.715 362.793 197.692L362.96 197.622Z" fill="#4D4D4D"/>
<path d="M353.27 194.507C353.27 195.21 352.507 196.334 353.27 196.849C354.032 197.364 356.45 198.676 356.692 197.669C356.934 196.662 357.306 195.139 356.692 194.554C356.078 193.969 353.27 192.212 353.27 194.507Z" fill="#4A2B0F"/>
<path d="M361.64 196.685C361.751 197.364 361.212 198.652 362.03 199.027C362.849 199.402 365.453 199.94 365.509 198.91C365.564 197.879 365.676 196.264 364.988 195.865C364.3 195.467 361.249 194.46 361.64 196.685Z" fill="#4A2B0F"/>
<path d="M261.758 173.97C263.102 172.545 264.754 171.66 266.502 171.43C268.249 171.201 270.011 171.637 271.56 172.682C271.693 172.781 271.852 172.81 272.002 172.761C272.152 172.713 272.281 172.592 272.36 172.424C272.439 172.256 272.461 172.056 272.423 171.867C272.385 171.678 272.288 171.516 272.155 171.417C270.398 170.208 268.391 169.698 266.399 169.953C264.407 170.208 262.523 171.216 260.995 172.846C260.4 173.431 261.237 174.461 261.814 173.876L261.758 173.97Z" fill="#42210B"/>
<path d="M273.643 175.398C271.683 176.482 270.047 178.324 268.974 180.656C267.9 182.989 267.445 185.691 267.673 188.372C267.673 189.308 268.882 189.308 268.844 188.372C268.618 186.01 268.991 183.619 269.909 181.541C270.828 179.463 272.246 177.805 273.959 176.803C274.648 176.475 274.35 175.047 273.643 175.375V175.398Z" fill="#42210B"/>
<path d="M267.208 151.231L268.547 169.145C268.547 170.082 269.793 170.082 269.719 169.145L268.379 151.231C268.379 150.294 267.133 150.294 267.208 151.231V151.231Z" fill="#42210B"/>
<path d="M261.386 153.385L263.246 168.139C263.357 169.075 264.492 168.677 264.38 167.74L262.52 152.987C262.409 152.05 261.274 152.448 261.386 153.385Z" fill="#42210B"/>
<path d="M257.852 161.839L260.028 169.356C260.288 170.246 261.404 169.848 261.163 168.958L258.986 161.441C258.726 160.551 257.61 160.949 257.852 161.839Z" fill="#42210B"/>
<path d="M388.517 313.798C382.052 318.514 374.952 321.69 367.573 323.166C365.527 323.587 366.383 327.521 368.429 327.1C376.087 325.535 383.451 322.208 390.154 317.288C390.475 316.988 390.696 316.549 390.776 316.055C390.855 315.562 390.786 315.049 390.583 314.615C390.38 314.182 390.056 313.858 389.674 313.708C389.293 313.557 388.88 313.589 388.517 313.798V313.798Z" fill="#9E9E9E"/>
<path d="M612.944 467.022C612.721 467.022 586.049 458.732 585.807 458.685C578.083 457.309 570.45 455.227 562.966 452.456C562.471 452.259 562.036 451.875 561.72 451.355L560.325 451.168L521.265 419.367L458.36 465.992L526.38 517.839C535.382 506.786 555.47 500.229 567.784 496.763C582.329 492.899 600.78 482.759 612.944 467.022Z" fill="url(#paint2_linear_28_102)"/>
<defs>
<linearGradient id="paint0_linear_28_102" x1="317.186" y1="590.88" x2="372.813" y2="559.338" gradientUnits="userSpaceOnUse">
<stop stop-color="#0031BF" stop-opacity="0"/>
<stop offset="1" stop-color="#0F0013"/>
</linearGradient>
<linearGradient id="paint1_linear_28_102" x1="95.3808" y1="453.323" x2="137.98" y2="427.296" gradientUnits="userSpaceOnUse">
<stop stop-color="#0031BF" stop-opacity="0"/>
<stop offset="1" stop-color="#0F0013"/>
</linearGradient>
<linearGradient id="paint2_linear_28_102" x1="516.113" y1="484.843" x2="594.974" y2="440.098" gradientUnits="userSpaceOnUse">
<stop stop-color="#0031BF" stop-opacity="0"/>
<stop offset="1" stop-color="#0F0013"/>
</linearGradient>
</defs>
</svg>
